P3
50 50
255
122 0 255 122 0 255 122 0 255 122 0 255 122 0 255 122 0 255 122 0 255 122 0 255 122 0 255 122 0 255 122 0 255 122 0 255 122 0 255 122 0 255 122 0 255 122 0 255 122 0 255 122 0 255 122 0 255 122 0 255 122 0 255 122 0 255 122 0 255 122 0 255 122 0 255 122 0 255 122 0 255 122 0 255 122 0 255 122 0 255 122 0 255 122 0 255 122 0 255 122 0 255 122 0 255 122 0 255 122 0 255 122 0 255 122 0 255 122 0 255 122 0 255 122 0 255 122 0 255 122 0 255 122 0 255 122 0 255 122 0 255 122 0 255 122 0 255 122 0 255 
122 0 255 122 0 255 122 0 255 122 0 255 122 0 255 122 0 255 122 0 255 122 0 255 122 0 255 122 0 255 122 0 255 122 0 255 122 0 255 122 0 255 122 0 255 122 0 255 122 0 255 122 0 255 122 0 255 122 0 255 122 0 255 122 0 255 122 0 255 122 0 255 122 0 255 122 0 255 122 0 255 122 0 255 122 0 255 122 0 255 122 0 255 122 0 255 122 0 255 122 0 255 122 0 255 122 0 255 122 0 255 122 0 255 122 0 255 122 0 255 122 0 255 122 0 255 122 0 255 122 0 255 122 0 255 122 0 255 122 0 255 122 0 255 122 0 255 122 0 255 
122 0 255 122 0 255 122 0 255 122 0 255 122 0 255 122 0 255 122 0 255 122 0 255 122 0 255 122 0 255 122 0 255 122 0 255 122 0 255 122 0 255 122 0 255 122 0 255 122 0 255 122 0 255 122 0 255 122 0 255 122 0 255 122 0 255 122 0 255 122 0 255 122 0 255 122 0 255 122 0 255 122 0 255 122 0 255 122 0 255 122 0 255 122 0 255 122 0 255 122 0 255 122 0 255 122 0 255 122 0 255 122 0 255 122 0 255 122 0 255 122 0 255 122 0 255 122 0 255 122 0 255 122 0 255 122 0 255 122 0 255 122 0 255 122 0 255 122 0 255 
122 0 255 122 0 255 122 0 255 122 0 255 122 0 255 122 0 255 122 0 255 122 0 255 122 0 255 122 0 255 122 0 255 122 0 255 122 0 255 122 0 255 122 0 255 122 0 255 122 0 255 122 0 255 122 0 255 122 0 255 122 0 255 122 0 255 122 0 255 122 0 255 122 0 255 122 0 255 122 0 255 122 0 255 122 0 255 122 0 255 122 0 255 122 0 255 122 0 255 122 0 255 122 0 255 122 0 255 122 0 255 122 0 255 122 0 255 122 0 255 122 0 255 122 0 255 122 0 255 122 0 255 122 0 255 122 0 255 122 0 255 122 0 255 122 0 255 122 0 255 
122 0 255 122 0 255 122 0 255 122 0 255 122 0 255 122 0 255 122 0 255 122 0 255 122 0 255 122 0 255 122 0 255 122 0 255 122 0 255 122 0 255 122 0 255 122 0 255 122 0 255 122 0 255 122 0 255 122 0 255 122 0 255 122 0 255 122 0 255 122 0 255 122 0 255 122 0 255 122 0 255 122 0 255 122 0 255 122 0 255 122 0 255 122 0 255 122 0 255 122 0 255 122 0 255 122 0 255 122 0 255 122 0 255 122 0 255 122 0 255 122 0 255 122 0 255 122 0 255 122 0 255 122 0 255 122 0 255 122 0 255 122 0 255 122 0 255 122 0 255 
122 0 255 122 0 255 122 0 255 122 0 255 122 0 255 122 0 255 122 0 255 122 0 255 122 0 255 122 0 255 122 0 255 122 0 255 122 0 255 122 0 255 122 0 255 122 0 255 122 0 255 122 0 255 122 0 255 122 0 255 122 0 255 122 0 255 122 0 255 122 0 255 122 0 255 122 0 255 122 0 255 122 0 255 122 0 255 122 0 255 122 0 255 122 0 255 122 0 255 122 0 255 122 0 255 122 0 255 122 0 255 122 0 255 122 0 255 122 0 255 122 0 255 122 0 255 122 0 255 122 0 255 122 0 255 122 0 255 122 0 255 122 0 255 122 0 255 122 0 255 
122 0 255 122 0 255 122 0 255 122 0 255 122 0 255 122 0 255 122 0 255 122 0 255 122 0 255 122 0 255 122 0 255 122 0 255 122 0 255 122 0 255 122 0 255 122 0 255 122 0 255 122 0 255 122 0 255 122 0 255 122 0 255 122 0 255 122 0 255 122 0 255 122 0 255 122 0 255 122 0 255 122 0 255 122 0 255 122 0 255 122 0 255 122 0 255 122 0 255 122 0 255 122 0 255 122 0 255 122 0 255 122 0 255 122 0 255 122 0 255 122 0 255 122 0 255 122 0 255 122 0 255 122 0 255 122 0 255 122 0 255 122 0 255 122 0 255 122 0 255 
122 0 255 122 0 255 122 0 255 122 0 255 122 0 255 122 0 255 122 0 255 122 0 255 122 0 255 122 0 255 122 0 255 122 0 255 122 0 255 122 0 255 122 0 255 122 0 255 122 0 255 122 0 255 122 0 255 122 0 255 122 0 255 122 0 255 122 0 255 122 0 255 122 0 255 122 0 255 122 0 255 122 0 255 122 0 255 122 0 255 122 0 255 122 0 255 122 0 255 122 0 255 122 0 255 122 0 255 122 0 255 122 0 255 122 0 255 122 0 255 122 0 255 122 0 255 122 0 255 122 0 255 122 0 255 122 0 255 122 0 255 122 0 255 122 0 255 122 0 255 
122 0 255 122 0 255 122 0 255 122 0 255 122 0 255 122 0 255 122 0 255 122 0 255 122 0 255 122 0 255 122 0 255 122 0 255 122 0 255 122 0 255 122 0 255 122 0 255 122 0 255 122 0 255 122 0 255 122 0 255 122 0 255 122 0 255 122 0 255 122 0 255 122 0 255 122 0 255 122 0 255 122 0 255 122 0 255 122 0 255 122 0 255 122 0 255 122 0 255 122 0 255 122 0 255 122 0 255 122 0 255 122 0 255 122 0 255 122 0 255 122 0 255 122 0 255 122 0 255 122 0 255 122 0 255 122 0 255 122 0 255 122 0 255 122 0 255 122 0 255 
122 0 255 122 0 255 122 0 255 122 0 255 122 0 255 122 0 255 122 0 255 122 0 255 122 0 255 122 0 255 0 255 0 0 255 0 0 255 0 0 255 0 0 255 0 0 255 0 0 255 0 0 255 0 0 255 0 0 255 0 0 255 0 122 0 255 122 0 255 122 0 255 122 0 255 122 0 255 122 0 255 122 0 255 122 0 255 122 0 255 122 0 255 122 0 255 122 0 255 122 0 255 122 0 255 122 0 255 122 0 255 122 0 255 122 0 255 122 0 255 122 0 255 122 0 255 122 0 255 122 0 255 122 0 255 122 0 255 122 0 255 122 0 255 122 0 255 122 0 255 
122 0 255 122 0 255 122 0 255 122 0 255 122 0 255 122 0 255 122 0 255 122 0 255 122 0 255 122 0 255 0 255 0 122 0 255 122 0 255 122 0 255 122 0 255 122 0 255 122 0 255 122 0 255 122 0 255 122 0 255 0 255 0 122 0 255 122 0 255 122 0 255 122 0 255 122 0 255 122 0 255 122 0 255 122 0 255 122 0 255 50 190 20 50 190 20 50 190 20 50 190 20 50 190 20 50 190 20 50 190 20 50 190 20 50 190 20 50 190 20 50 190 20 122 0 255 122 0 255 122 0 255 122 0 255 122 0 255 122 0 255 122 0 255 122 0 255 122 0 255 
122 0 255 122 0 255 122 0 255 122 0 255 122 0 255 122 0 255 122 0 255 122 0 255 122 0 255 122 0 255 0 255 0 122 0 255 122 0 255 122 0 255 122 0 255 122 0 255 122 0 255 122 0 255 122 0 255 122 0 255 0 255 0 122 0 255 122 0 255 122 0 255 122 0 255 122 0 255 122 0 255 122 0 255 122 0 255 122 0 255 50 190 20 50 190 20 50 190 20 50 190 20 50 190 20 50 190 20 50 190 20 50 190 20 50 190 20 50 190 20 50 190 20 122 0 255 122 0 255 122 0 255 122 0 255 122 0 255 122 0 255 122 0 255 122 0 255 122 0 255 
122 0 255 122 0 255 122 0 255 122 0 255 122 0 255 122 0 255 122 0 255 122 0 255 122 0 255 122 0 255 0 255 0 122 0 255 122 0 255 122 0 255 122 0 255 122 0 255 122 0 255 122 0 255 122 0 255 122 0 255 0 255 0 122 0 255 122 0 255 122 0 255 122 0 255 122 0 255 122 0 255 122 0 255 122 0 255 122 0 255 50 190 20 50 190 20 50 190 20 50 190 20 50 190 20 50 190 20 50 190 20 50 190 20 50 190 20 50 190 20 50 190 20 122 0 255 122 0 255 122 0 255 122 0 255 122 0 255 122 0 255 122 0 255 122 0 255 122 0 255 
122 0 255 122 0 255 122 0 255 122 0 255 122 0 255 122 0 255 122 0 255 122 0 255 122 0 255 122 0 255 0 255 0 122 0 255 122 0 255 122 0 255 122 0 255 122 0 255 122 0 255 122 0 255 122 0 255 122 0 255 0 255 0 122 0 255 122 0 255 122 0 255 122 0 255 122 0 255 122 0 255 122 0 255 122 0 255 122 0 255 50 190 20 50 190 20 50 190 20 50 190 20 50 190 20 50 190 20 50 190 20 50 190 20 50 190 20 50 190 20 50 190 20 122 0 255 122 0 255 122 0 255 122 0 255 122 0 255 122 0 255 122 0 255 122 0 255 122 0 255 
122 0 255 122 0 255 122 0 255 122 0 255 122 0 255 122 0 255 122 0 255 122 0 255 122 0 255 122 0 255 0 255 0 122 0 255 122 0 255 122 0 255 122 0 255 122 0 255 122 0 255 122 0 255 122 0 255 122 0 255 0 255 0 122 0 255 122 0 255 122 0 255 122 0 255 122 0 255 122 0 255 122 0 255 122 0 255 122 0 255 50 190 20 50 190 20 50 190 20 50 190 20 50 190 20 50 190 20 50 190 20 50 190 20 50 190 20 50 190 20 50 190 20 122 0 255 122 0 255 122 0 255 122 0 255 122 0 255 122 0 255 122 0 255 122 0 255 122 0 255 
122 0 255 122 0 255 122 0 255 122 0 255 122 0 255 122 0 255 122 0 255 122 0 255 122 0 255 122 0 255 0 255 0 122 0 255 122 0 255 122 0 255 122 0 255 122 0 255 122 0 255 122 0 255 122 0 255 122 0 255 0 255 0 122 0 255 122 0 255 122 0 255 122 0 255 122 0 255 122 0 255 122 0 255 122 0 255 122 0 255 50 190 20 50 190 20 50 190 20 50 190 20 50 190 20 50 190 20 50 190 20 50 190 20 50 190 20 50 190 20 50 190 20 122 0 255 122 0 255 122 0 255 122 0 255 122 0 255 122 0 255 122 0 255 122 0 255 122 0 255 
122 0 255 122 0 255 122 0 255 122 0 255 122 0 255 122 0 255 122 0 255 122 0 255 122 0 255 122 0 255 0 255 0 122 0 255 122 0 255 122 0 255 122 0 255 122 0 255 122 0 255 122 0 255 122 0 255 122 0 255 0 255 0 122 0 255 122 0 255 122 0 255 122 0 255 122 0 255 122 0 255 122 0 255 122 0 255 122 0 255 50 190 20 50 190 20 50 190 20 50 190 20 50 190 20 50 190 20 50 190 20 50 190 20 50 190 20 50 190 20 50 190 20 122 0 255 122 0 255 122 0 255 122 0 255 122 0 255 122 0 255 122 0 255 122 0 255 122 0 255 
122 0 255 122 0 255 122 0 255 122 0 255 122 0 255 122 0 255 122 0 255 122 0 255 122 0 255 122 0 255 0 255 0 122 0 255 122 0 255 122 0 255 122 0 255 122 0 255 122 0 255 122 0 255 122 0 255 122 0 255 0 255 0 122 0 255 122 0 255 122 0 255 122 0 255 122 0 255 122 0 255 122 0 255 122 0 255 122 0 255 50 190 20 50 190 20 50 190 20 50 190 20 50 190 20 50 190 20 50 190 20 50 190 20 50 190 20 50 190 20 50 190 20 122 0 255 122 0 255 122 0 255 122 0 255 122 0 255 122 0 255 122 0 255 122 0 255 122 0 255 
122 0 255 122 0 255 122 0 255 122 0 255 122 0 255 122 0 255 122 0 255 122 0 255 122 0 255 122 0 255 0 255 0 122 0 255 122 0 255 122 0 255 122 0 255 122 0 255 122 0 255 122 0 255 122 0 255 122 0 255 0 255 0 122 0 255 122 0 255 122 0 255 122 0 255 122 0 255 122 0 255 122 0 255 122 0 255 122 0 255 50 190 20 50 190 20 50 190 20 50 190 20 50 190 20 50 190 20 50 190 20 50 190 20 50 190 20 50 190 20 50 190 20 122 0 255 122 0 255 122 0 255 122 0 255 122 0 255 122 0 255 122 0 255 122 0 255 122 0 255 
122 0 255 122 0 255 122 0 255 122 0 255 122 0 255 122 0 255 122 0 255 122 0 255 122 0 255 122 0 255 0 255 0 122 0 255 122 0 255 122 0 255 122 0 255 122 0 255 122 0 255 122 0 255 122 0 255 122 0 255 0 255 0 122 0 255 122 0 255 122 0 255 122 0 255 122 0 255 122 0 255 122 0 255 122 0 255 122 0 255 50 190 20 50 190 20 50 190 20 50 190 20 50 190 20 50 190 20 50 190 20 50 190 20 50 190 20 50 190 20 50 190 20 122 0 255 122 0 255 122 0 255 122 0 255 122 0 255 122 0 255 122 0 255 122 0 255 122 0 255 
122 0 255 122 0 255 122 0 255 122 0 255 122 0 255 122 0 255 122 0 255 122 0 255 122 0 255 122 0 255 0 255 0 122 0 255 122 0 255 122 0 255 122 0 255 122 0 255 122 0 255 122 0 255 122 0 255 122 0 255 0 255 0 122 0 255 122 0 255 122 0 255 122 0 255 122 0 255 122 0 255 122 0 255 122 0 255 122 0 255 50 190 20 50 190 20 50 190 20 50 190 20 50 190 20 50 190 20 50 190 20 50 190 20 50 190 20 50 190 20 50 190 20 122 0 255 122 0 255 122 0 255 122 0 255 122 0 255 122 0 255 122 0 255 122 0 255 122 0 255 
122 0 255 122 0 255 122 0 255 122 0 255 122 0 255 122 0 255 122 0 255 122 0 255 122 0 255 122 0 255 0 255 0 122 0 255 122 0 255 122 0 255 122 0 255 122 0 255 122 0 255 122 0 255 122 0 255 122 0 255 0 255 0 122 0 255 122 0 255 122 0 255 122 0 255 122 0 255 122 0 255 122 0 255 122 0 255 122 0 255 50 190 20 50 190 20 50 190 20 50 190 20 50 190 20 50 190 20 50 190 20 50 190 20 50 190 20 50 190 20 50 190 20 122 0 255 122 0 255 122 0 255 122 0 255 122 0 255 122 0 255 122 0 255 122 0 255 122 0 255 
122 0 255 122 0 255 122 0 255 122 0 255 122 0 255 122 0 255 122 0 255 122 0 255 122 0 255 122 0 255 0 255 0 122 0 255 122 0 255 122 0 255 122 0 255 122 0 255 122 0 255 122 0 255 122 0 255 122 0 255 0 255 0 122 0 255 122 0 255 122 0 255 122 0 255 122 0 255 122 0 255 122 0 255 122 0 255 122 0 255 50 190 20 50 190 20 50 190 20 50 190 20 50 190 20 50 190 20 50 190 20 50 190 20 50 190 20 50 190 20 50 190 20 122 0 255 122 0 255 122 0 255 122 0 255 122 0 255 122 0 255 122 0 255 122 0 255 122 0 255 
122 0 255 122 0 255 122 0 255 122 0 255 122 0 255 122 0 255 122 0 255 122 0 255 122 0 255 122 0 255 0 255 0 122 0 255 122 0 255 122 0 255 122 0 255 122 0 255 122 0 255 122 0 255 122 0 255 122 0 255 0 255 0 122 0 255 122 0 255 122 0 255 122 0 255 122 0 255 122 0 255 122 0 255 122 0 255 122 0 255 50 190 20 50 190 20 50 190 20 50 190 20 50 190 20 50 190 20 50 190 20 50 190 20 50 190 20 50 190 20 50 190 20 122 0 255 122 0 255 122 0 255 122 0 255 122 0 255 122 0 255 122 0 255 122 0 255 122 0 255 
122 0 255 122 0 255 122 0 255 122 0 255 122 0 255 122 0 255 122 0 255 122 0 255 122 0 255 122 0 255 0 255 0 122 0 255 122 0 255 122 0 255 122 0 255 122 0 255 122 0 255 122 0 255 122 0 255 122 0 255 0 255 0 122 0 255 122 0 255 122 0 255 122 0 255 122 0 255 122 0 255 122 0 255 122 0 255 122 0 255 50 190 20 50 190 20 50 190 20 50 190 20 50 190 20 50 190 20 50 190 20 50 190 20 50 190 20 50 190 20 50 190 20 122 0 255 122 0 255 122 0 255 122 0 255 122 0 255 122 0 255 122 0 255 122 0 255 122 0 255 
122 0 255 122 0 255 122 0 255 122 0 255 122 0 255 122 0 255 122 0 255 122 0 255 122 0 255 122 0 255 0 255 0 122 0 255 122 0 255 122 0 255 122 0 255 122 0 255 122 0 255 122 0 255 122 0 255 122 0 255 0 255 0 122 0 255 122 0 255 122 0 255 122 0 255 122 0 255 122 0 255 122 0 255 122 0 255 122 0 255 50 190 20 50 190 20 50 190 20 50 190 20 50 190 20 50 190 20 50 190 20 50 190 20 50 190 20 50 190 20 50 190 20 122 0 255 122 0 255 122 0 255 122 0 255 122 0 255 122 0 255 122 0 255 122 0 255 122 0 255 
122 0 255 122 0 255 122 0 255 122 0 255 122 0 255 122 0 255 122 0 255 122 0 255 122 0 255 122 0 255 0 255 0 122 0 255 122 0 255 122 0 255 122 0 255 122 0 255 122 0 255 122 0 255 122 0 255 122 0 255 0 255 0 122 0 255 122 0 255 122 0 255 122 0 255 122 0 255 122 0 255 122 0 255 122 0 255 122 0 255 50 190 20 50 190 20 50 190 20 50 190 20 50 190 20 50 190 20 50 190 20 50 190 20 50 190 20 50 190 20 50 190 20 122 0 255 122 0 255 122 0 255 122 0 255 122 0 255 122 0 255 122 0 255 122 0 255 122 0 255 
122 0 255 122 0 255 122 0 255 122 0 255 122 0 255 122 0 255 122 0 255 122 0 255 122 0 255 122 0 255 0 255 0 122 0 255 122 0 255 122 0 255 122 0 255 122 0 255 122 0 255 122 0 255 122 0 255 122 0 255 0 255 0 122 0 255 122 0 255 122 0 255 122 0 255 122 0 255 122 0 255 122 0 255 122 0 255 122 0 255 50 190 20 50 190 20 50 190 20 50 190 20 50 190 20 50 190 20 50 190 20 50 190 20 50 190 20 50 190 20 50 190 20 122 0 255 122 0 255 122 0 255 122 0 255 122 0 255 122 0 255 122 0 255 122 0 255 122 0 255 
122 0 255 122 0 255 122 0 255 122 0 255 122 0 255 122 0 255 122 0 255 122 0 255 122 0 255 122 0 255 0 255 0 122 0 255 122 0 255 122 0 255 122 0 255 122 0 255 122 0 255 122 0 255 122 0 255 122 0 255 0 255 0 122 0 255 122 0 255 122 0 255 122 0 255 122 0 255 122 0 255 122 0 255 122 0 255 122 0 255 50 190 20 50 190 20 50 190 20 50 190 20 50 190 20 50 190 20 50 190 20 50 190 20 50 190 20 50 190 20 50 190 20 122 0 255 122 0 255 122 0 255 122 0 255 122 0 255 122 0 255 122 0 255 122 0 255 122 0 255 
122 0 255 122 0 255 122 0 255 122 0 255 122 0 255 122 0 255 122 0 255 122 0 255 122 0 255 122 0 255 0 255 0 0 255 0 0 255 0 0 255 0 0 255 0 0 255 0 0 255 0 0 255 0 0 255 0 0 255 0 0 255 0 122 0 255 122 0 255 122 0 255 122 0 255 122 0 255 122 0 255 122 0 255 122 0 255 122 0 255 50 190 20 50 190 20 50 190 20 50 190 20 50 190 20 50 190 20 50 190 20 50 190 20 50 190 20 50 190 20 50 190 20 122 0 255 122 0 255 122 0 255 122 0 255 122 0 255 122 0 255 122 0 255 122 0 255 122 0 255 
122 0 255 122 0 255 122 0 255 122 0 255 122 0 255 122 0 255 122 0 255 122 0 255 122 0 255 122 0 255 122 0 255 122 0 255 122 0 255 122 0 255 122 0 255 122 0 255 122 0 255 122 0 255 122 0 255 122 0 255 122 0 255 122 0 255 122 0 255 122 0 255 122 0 255 122 0 255 122 0 255 122 0 255 122 0 255 122 0 255 122 0 255 122 0 255 122 0 255 122 0 255 122 0 255 122 0 255 122 0 255 122 0 255 122 0 255 122 0 255 122 0 255 122 0 255 122 0 255 122 0 255 122 0 255 122 0 255 122 0 255 122 0 255 122 0 255 122 0 255 
122 0 255 122 0 255 122 0 255 122 0 255 122 0 255 122 0 255 122 0 255 122 0 255 122 0 255 122 0 255 122 0 255 122 0 255 122 0 255 122 0 255 122 0 255 122 0 255 122 0 255 122 0 255 122 0 255 122 0 255 122 0 255 122 0 255 122 0 255 122 0 255 122 0 255 122 0 255 122 0 255 122 0 255 122 0 255 122 0 255 122 0 255 122 0 255 122 0 255 122 0 255 122 0 255 122 0 255 122 0 255 122 0 255 122 0 255 122 0 255 122 0 255 122 0 255 122 0 255 122 0 255 122 0 255 122 0 255 122 0 255 122 0 255 122 0 255 122 0 255 
122 0 255 122 0 255 122 0 255 122 0 255 122 0 255 122 0 255 122 0 255 122 0 255 122 0 255 122 0 255 122 0 255 122 0 255 122 0 255 122 0 255 122 0 255 122 0 255 122 0 255 122 0 255 122 0 255 122 0 255 122 0 255 122 0 255 122 0 255 122 0 255 122 0 255 122 0 255 122 0 255 122 0 255 122 0 255 122 0 255 122 0 255 122 0 255 122 0 255 122 0 255 122 0 255 122 0 255 122 0 255 122 0 255 122 0 255 122 0 255 122 0 255 122 0 255 122 0 255 122 0 255 122 0 255 122 0 255 122 0 255 122 0 255 122 0 255 122 0 255 
122 0 255 122 0 255 122 0 255 122 0 255 122 0 255 122 0 255 122 0 255 122 0 255 122 0 255 122 0 255 122 0 255 122 0 255 122 0 255 122 0 255 122 0 255 122 0 255 122 0 255 122 0 255 122 0 255 122 0 255 122 0 255 122 0 255 122 0 255 122 0 255 122 0 255 122 0 255 122 0 255 122 0 255 122 0 255 122 0 255 122 0 255 122 0 255 122 0 255 122 0 255 122 0 255 122 0 255 122 0 255 122 0 255 122 0 255 122 0 255 122 0 255 122 0 255 122 0 255 122 0 255 122 0 255 122 0 255 122 0 255 122 0 255 122 0 255 122 0 255 
122 0 255 122 0 255 122 0 255 122 0 255 122 0 255 122 0 255 122 0 255 122 0 255 122 0 255 122 0 255 122 0 255 122 0 255 122 0 255 122 0 255 122 0 255 122 0 255 122 0 255 122 0 255 122 0 255 122 0 255 122 0 255 122 0 255 122 0 255 122 0 255 122 0 255 122 0 255 122 0 255 122 0 255 122 0 255 122 0 255 122 0 255 122 0 255 122 0 255 122 0 255 122 0 255 122 0 255 122 0 255 122 0 255 122 0 255 122 0 255 122 0 255 122 0 255 122 0 255 122 0 255 122 0 255 122 0 255 122 0 255 122 0 255 122 0 255 122 0 255 
122 0 255 122 0 255 122 0 255 122 0 255 122 0 255 122 0 255 122 0 255 122 0 255 122 0 255 122 0 255 122 0 255 122 0 255 122 0 255 122 0 255 122 0 255 122 0 255 122 0 255 122 0 255 122 0 255 122 0 255 122 0 255 122 0 255 122 0 255 122 0 255 122 0 255 122 0 255 122 0 255 122 0 255 122 0 255 122 0 255 122 0 255 122 0 255 122 0 255 122 0 255 122 0 255 122 0 255 122 0 255 122 0 255 122 0 255 122 0 255 122 0 255 122 0 255 122 0 255 122 0 255 122 0 255 122 0 255 122 0 255 122 0 255 122 0 255 122 0 255 
122 0 255 122 0 255 122 0 255 122 0 255 122 0 255 122 0 255 122 0 255 122 0 255 122 0 255 122 0 255 122 0 255 122 0 255 122 0 255 122 0 255 122 0 255 122 0 255 122 0 255 122 0 255 122 0 255 122 0 255 122 0 255 122 0 255 122 0 255 122 0 255 122 0 255 122 0 255 122 0 255 122 0 255 122 0 255 122 0 255 122 0 255 122 0 255 122 0 255 122 0 255 122 0 255 122 0 255 122 0 255 122 0 255 122 0 255 122 0 255 122 0 255 122 0 255 122 0 255 122 0 255 122 0 255 122 0 255 122 0 255 122 0 255 122 0 255 122 0 255 
122 0 255 122 0 255 122 0 255 122 0 255 122 0 255 122 0 255 122 0 255 122 0 255 122 0 255 122 0 255 122 0 255 122 0 255 122 0 255 122 0 255 122 0 255 122 0 255 122 0 255 122 0 255 122 0 255 122 0 255 122 0 255 122 0 255 122 0 255 122 0 255 122 0 255 122 0 255 122 0 255 122 0 255 122 0 255 122 0 255 122 0 255 122 0 255 122 0 255 122 0 255 122 0 255 122 0 255 122 0 255 122 0 255 122 0 255 122 0 255 122 0 255 122 0 255 122 0 255 122 0 255 122 0 255 122 0 255 122 0 255 122 0 255 122 0 255 122 0 255 
122 0 255 122 0 255 122 0 255 122 0 255 122 0 255 122 0 255 122 0 255 122 0 255 122 0 255 122 0 255 122 0 255 122 0 255 122 0 255 122 0 255 122 0 255 122 0 255 122 0 255 122 0 255 122 0 255 122 0 255 122 0 255 122 0 255 122 0 255 122 0 255 122 0 255 122 0 255 122 0 255 122 0 255 122 0 255 122 0 255 122 0 255 122 0 255 122 0 255 122 0 255 122 0 255 122 0 255 122 0 255 122 0 255 122 0 255 122 0 255 122 0 255 122 0 255 122 0 255 122 0 255 122 0 255 122 0 255 122 0 255 122 0 255 122 0 255 122 0 255 
122 0 255 122 0 255 122 0 255 122 0 255 122 0 255 122 0 255 122 0 255 122 0 255 122 0 255 122 0 255 122 0 255 122 0 255 122 0 255 122 0 255 122 0 255 122 0 255 122 0 255 122 0 255 122 0 255 122 0 255 122 0 255 122 0 255 122 0 255 122 0 255 122 0 255 122 0 255 122 0 255 122 0 255 122 0 255 122 0 255 122 0 255 122 0 255 122 0 255 122 0 255 122 0 255 122 0 255 122 0 255 122 0 255 122 0 255 122 0 255 122 0 255 122 0 255 122 0 255 122 0 255 122 0 255 122 0 255 122 0 255 122 0 255 122 0 255 122 0 255 
122 0 255 122 0 255 122 0 255 122 0 255 122 0 255 122 0 255 122 0 255 122 0 255 122 0 255 122 0 255 122 0 255 122 0 255 122 0 255 122 0 255 122 0 255 122 0 255 122 0 255 122 0 255 122 0 255 122 0 255 122 0 255 122 0 255 122 0 255 122 0 255 122 0 255 122 0 255 122 0 255 122 0 255 122 0 255 122 0 255 122 0 255 122 0 255 122 0 255 122 0 255 122 0 255 122 0 255 122 0 255 122 0 255 122 0 255 122 0 255 122 0 255 122 0 255 122 0 255 122 0 255 122 0 255 122 0 255 122 0 255 122 0 255 122 0 255 122 0 255 
122 0 255 122 0 255 122 0 255 122 0 255 122 0 255 122 0 255 122 0 255 122 0 255 122 0 255 122 0 255 122 0 255 122 0 255 122 0 255 122 0 255 122 0 255 122 0 255 122 0 255 122 0 255 122 0 255 122 0 255 122 0 255 122 0 255 122 0 255 122 0 255 122 0 255 122 0 255 122 0 255 122 0 255 122 0 255 122 0 255 122 0 255 122 0 255 122 0 255 122 0 255 122 0 255 122 0 255 122 0 255 122 0 255 122 0 255 122 0 255 122 0 255 122 0 255 122 0 255 122 0 255 122 0 255 122 0 255 122 0 255 122 0 255 122 0 255 122 0 255 
122 0 255 122 0 255 122 0 255 122 0 255 122 0 255 122 0 255 122 0 255 122 0 255 122 0 255 122 0 255 122 0 255 122 0 255 122 0 255 122 0 255 122 0 255 122 0 255 122 0 255 122 0 255 122 0 255 122 0 255 122 0 255 122 0 255 122 0 255 122 0 255 122 0 255 122 0 255 122 0 255 122 0 255 122 0 255 122 0 255 122 0 255 122 0 255 122 0 255 122 0 255 122 0 255 122 0 255 122 0 255 122 0 255 122 0 255 122 0 255 122 0 255 122 0 255 122 0 255 122 0 255 122 0 255 122 0 255 122 0 255 122 0 255 122 0 255 122 0 255 
122 0 255 122 0 255 122 0 255 122 0 255 122 0 255 122 0 255 122 0 255 122 0 255 122 0 255 122 0 255 122 0 255 122 0 255 122 0 255 122 0 255 122 0 255 122 0 255 122 0 255 122 0 255 122 0 255 122 0 255 122 0 255 122 0 255 122 0 255 122 0 255 122 0 255 122 0 255 122 0 255 122 0 255 122 0 255 122 0 255 122 0 255 122 0 255 122 0 255 122 0 255 122 0 255 122 0 255 122 0 255 122 0 255 122 0 255 122 0 255 122 0 255 122 0 255 122 0 255 122 0 255 122 0 255 122 0 255 122 0 255 122 0 255 122 0 255 122 0 255 
122 0 255 122 0 255 122 0 255 122 0 255 122 0 255 122 0 255 122 0 255 122 0 255 122 0 255 122 0 255 122 0 255 122 0 255 122 0 255 122 0 255 122 0 255 122 0 255 122 0 255 122 0 255 122 0 255 122 0 255 122 0 255 122 0 255 122 0 255 122 0 255 122 0 255 122 0 255 122 0 255 122 0 255 122 0 255 122 0 255 122 0 255 122 0 255 122 0 255 122 0 255 122 0 255 122 0 255 122 0 255 122 0 255 122 0 255 122 0 255 122 0 255 122 0 255 122 0 255 122 0 255 122 0 255 122 0 255 122 0 255 122 0 255 122 0 255 122 0 255 
122 0 255 122 0 255 122 0 255 122 0 255 122 0 255 122 0 255 122 0 255 122 0 255 122 0 255 122 0 255 122 0 255 122 0 255 122 0 255 122 0 255 122 0 255 122 0 255 122 0 255 122 0 255 122 0 255 122 0 255 122 0 255 122 0 255 122 0 255 122 0 255 122 0 255 122 0 255 122 0 255 122 0 255 122 0 255 122 0 255 122 0 255 122 0 255 122 0 255 122 0 255 122 0 255 122 0 255 122 0 255 122 0 255 122 0 255 122 0 255 122 0 255 122 0 255 122 0 255 122 0 255 122 0 255 122 0 255 122 0 255 122 0 255 122 0 255 122 0 255 
122 0 255 122 0 255 122 0 255 122 0 255 122 0 255 122 0 255 122 0 255 122 0 255 122 0 255 122 0 255 122 0 255 122 0 255 122 0 255 122 0 255 122 0 255 122 0 255 122 0 255 122 0 255 122 0 255 122 0 255 122 0 255 122 0 255 122 0 255 122 0 255 122 0 255 122 0 255 122 0 255 122 0 255 122 0 255 122 0 255 122 0 255 122 0 255 122 0 255 122 0 255 122 0 255 122 0 255 122 0 255 122 0 255 122 0 255 122 0 255 122 0 255 122 0 255 122 0 255 122 0 255 122 0 255 122 0 255 122 0 255 122 0 255 122 0 255 122 0 255 
122 0 255 122 0 255 122 0 255 122 0 255 122 0 255 122 0 255 122 0 255 122 0 255 122 0 255 122 0 255 122 0 255 122 0 255 122 0 255 122 0 255 122 0 255 122 0 255 122 0 255 122 0 255 122 0 255 122 0 255 122 0 255 122 0 255 122 0 255 122 0 255 122 0 255 122 0 255 122 0 255 122 0 255 122 0 255 122 0 255 122 0 255 122 0 255 122 0 255 122 0 255 122 0 255 122 0 255 122 0 255 122 0 255 122 0 255 122 0 255 122 0 255 122 0 255 122 0 255 122 0 255 122 0 255 122 0 255 122 0 255 122 0 255 122 0 255 122 0 255 
122 0 255 122 0 255 122 0 255 122 0 255 122 0 255 122 0 255 122 0 255 122 0 255 122 0 255 122 0 255 122 0 255 122 0 255 122 0 255 122 0 255 122 0 255 122 0 255 122 0 255 122 0 255 122 0 255 122 0 255 122 0 255 122 0 255 122 0 255 122 0 255 122 0 255 122 0 255 122 0 255 122 0 255 122 0 255 122 0 255 122 0 255 122 0 255 122 0 255 122 0 255 122 0 255 122 0 255 122 0 255 122 0 255 122 0 255 122 0 255 122 0 255 122 0 255 122 0 255 122 0 255 122 0 255 122 0 255 122 0 255 122 0 255 122 0 255 122 0 255 
122 0 255 122 0 255 122 0 255 122 0 255 122 0 255 122 0 255 122 0 255 122 0 255 122 0 255 122 0 255 122 0 255 122 0 255 122 0 255 122 0 255 122 0 255 122 0 255 122 0 255 122 0 255 122 0 255 122 0 255 122 0 255 122 0 255 122 0 255 122 0 255 122 0 255 122 0 255 122 0 255 122 0 255 122 0 255 122 0 255 122 0 255 122 0 255 122 0 255 122 0 255 122 0 255 122 0 255 122 0 255 122 0 255 122 0 255 122 0 255 122 0 255 122 0 255 122 0 255 122 0 255 122 0 255 122 0 255 122 0 255 122 0 255 122 0 255 122 0 255 
