P3
3 3
255
30 203 251
61 217 249
189 148 108
201 24 109
58 247 113
92 156 156
111 126 116
194 219 215
170 153 171
